<?xml version="1.0" standalone="no"?><!DOCTYPE svg PUBLIC "-//W3C//DTD SVG 1.1//EN" "http://www.w3.org/Graphics/SVG/1.1/DTD/svg11.dtd"><svg t="1675410360742" class="icon" viewBox="0 0 1024 1024" version="1.1" xmlns="http://www.w3.org/2000/svg" p-id="3445" xmlns:xlink="http://www.w3.org/1999/xlink" width="200" height="200"><path d="M958.68 177.58a126.31 126.31 0 0 0-56.45-92.83C853 52.18 785.93 59.88 742.8 103.06L124 722.65 64.67 959.33l237.17-58.45L922.53 279.4a125.63 125.63 0 0 0 36.15-101.82zM682.13 273.9l68 68.05-422.68 423.18-68-68z m-510.57 579l22.67-90.42 10.28-10.29 68 68-10.32 10.34z m695.93-628.5l-62.42 62.5-68-68 60.73-60.79c16.82-16.85 43.26-20.46 61.5-8.4 12.7 8.29 20.5 21.03 21.98 35.71a48.06 48.06 0 0 1-13.79 38.98z" fill="#333333" p-id="3446"></path></svg>