<?xml version="1.0" standalone="no"?><!DOCTYPE svg PUBLIC "-//W3C//DTD SVG 1.1//EN" "http://www.w3.org/Graphics/SVG/1.1/DTD/svg11.dtd"><svg t="1676738539128" class="icon" viewBox="0 0 1024 1024" version="1.1" xmlns="http://www.w3.org/2000/svg" p-id="14032" xmlns:xlink="http://www.w3.org/1999/xlink" width="200" height="200"><path d="M192 320l64 0 0 64-64 0 0-64Z" fill="#666666" p-id="14033"></path><path d="M320 320l448 0 0 64-448 0 0-64Z" fill="#666666" p-id="14034"></path><path d="M192 512l64 0 0 64-64 0 0-64Z" fill="#666666" p-id="14035"></path><path d="M320 512l448 0 0 64-448 0 0-64Z" fill="#666666" p-id="14036"></path><path d="M192 704l64 0 0 64-64 0 0-64Z" fill="#666666" p-id="14037"></path><path d="M320 704l448 0 0 64-448 0 0-64Z" fill="#666666" p-id="14038"></path><path d="M320 64l64 0 0 64-64 0 0-64Z" fill="#666666" p-id="14039"></path><path d="M832 75.776l0 65.984C872.64 161.152 896 200.704 896 256l0 576c0 66.688-45.312 128-128 128L192 960c-61.312 0-128-64-128-128L64 256c0-46.592 25.6-87.872 64-110.272L128 75.776C53.568 102.208 0 172.544 0 256l0 576c0 106.048 85.952 192 192 192l576 0c106.048 0 192-85.952 192-192L960 256C960 172.544 906.432 102.208 832 75.776z" fill="#666666" p-id="14040"></path><path d="M576 64l64 0 0 64-64 0 0-64Z" fill="#666666" p-id="14041"></path><path d="M192 0l64 0 0 192-64 0 0-192Z" fill="#666666" p-id="14042"></path><path d="M448 0l64 0 0 192-64 0 0-192Z" fill="#666666" p-id="14043"></path><path d="M704 0l64 0 0 192-64 0 0-192Z" fill="#666666" p-id="14044"></path></svg>