<?xml version="1.0" standalone="no"?><!DOCTYPE svg PUBLIC "-//W3C//DTD SVG 1.1//EN" "http://www.w3.org/Graphics/SVG/1.1/DTD/svg11.dtd"><svg t="1676635293200" class="icon" viewBox="0 0 1127 1024" version="1.1" xmlns="http://www.w3.org/2000/svg" p-id="13004" xmlns:xlink="http://www.w3.org/1999/xlink" width="220.1171875" height="200"><path d="M1108.468296 824.890547C1159.055032 910.219597 1097.227863 1024 990.429373 1024L130.432879 1024C29.258031 1024-32.574625 910.219597 18.012112 824.890547L450.825613 68.266574C473.306472 22.754136 518.276424 0 563.240888 0 608.209469 0 653.173934 22.754136 675.660283 68.266574L1108.468296 824.890547 1108.468296 824.890547 1108.468296 824.890547 1108.468296 824.890547ZM1020.384123 877.110641 1019.583053 875.735153 586.77504 119.111177 583.854223 113.62523C580.333998 106.500274 573.244216 102.4 563.240888 102.4 553.240806 102.4 546.151071 106.500212 542.636068 113.61633L539.710577 119.111663 106.096287 877.110641C95.301134 895.319767 109.937021 921.6 130.432879 921.6L990.429373 921.6C1016.30634 921.6 1031.298263 895.520476 1020.384123 877.110641L1020.384123 877.110641 1020.384123 877.110641 1020.384123 877.110641ZM558.08319 307.2C532.482248 307.2 512 322.819385 512 342.344809L512 579.251379C512 598.776801 532.482248 614.4 558.08319 614.4L568.321812 614.4C593.922749 614.4 614.4 598.776801 614.4 579.251379L614.4 342.344809C614.4 322.819385 593.922749 307.2 568.321812 307.2L558.08319 307.2 558.08319 307.2 558.08319 307.2 558.08319 307.2ZM512 766.885176C512 780.001705 517.522432 793.032632 526.999818 802.305669 536.477199 811.577487 549.797038 816.975247 563.200625 816.975247 576.602962 816.975247 589.927798 811.577487 599.405184 802.305669 608.882565 793.032632 614.4 780.001705 614.4 766.885176 614.4 753.772319 608.882565 740.741391 599.405184 731.469573 589.927798 722.19776 576.602962 716.8 563.200625 716.8 549.797038 716.8 536.477199 722.19776 526.999818 731.469573 517.522432 740.741391 512 753.772319 512 766.885176L512 766.885176 512 766.885176 512 766.885176Z" fill="#979797" p-id="13005"></path></svg>