<?xml version="1.0" standalone="no"?><!DOCTYPE svg PUBLIC "-//W3C//DTD SVG 1.1//EN" "http://www.w3.org/Graphics/SVG/1.1/DTD/svg11.dtd"><svg t="1675241619858" class="icon" viewBox="0 0 1024 1024" version="1.1" xmlns="http://www.w3.org/2000/svg" p-id="1014" xmlns:xlink="http://www.w3.org/1999/xlink" width="200" height="200"><path d="M838.229333 813.738667a426.666667 426.666667 0 1 0-603.434666 0 426.666667 426.666667 0 0 0 603.434666 0z" fill="#FFD264" p-id="1015"></path><path d="M759.765333 147.84A426.666667 426.666667 0 0 1 176.981333 741.290667 426.666667 426.666667 0 1 0 759.765333 147.84z" fill="#FFC656" p-id="1016"></path><path d="M167.808 557.013333A396.16 396.16 0 0 1 877.994667 315.733333 396.16 396.16 0 1 0 220.586667 754.517333a394.752 394.752 0 0 1-52.778667-197.504z" fill="#FFD781" p-id="1017"></path><path d="M426.368 422.741333a79.104 79.104 0 0 0-146.218667-1.450666 12.373333 12.373333 0 0 0-0.469333 8.533333 12.8 12.8 0 0 0 13.269333 9.088 12.373333 12.373333 0 0 0 7.765334-3.541333c23.68-22.912 61.098667-41.344 105.130666 1.28a12.8 12.8 0 0 0 15.957334 1.450666 12.586667 12.586667 0 0 0 4.565333-15.317333zM792.96 422.741333a79.018667 79.018667 0 0 0-146.176-1.450666 12.8 12.8 0 0 0-0.469333 8.533333 12.8 12.8 0 0 0 13.226666 9.088 13.013333 13.013333 0 0 0 7.765334-3.498667c23.68-22.912 61.056-41.344 105.130666 1.28a12.8 12.8 0 0 0 15.957334 1.450667 12.8 12.8 0 0 0 4.992-6.869333 12.501333 12.501333 0 0 0-0.426667-8.533334z" fill="#2D292A" p-id="1018"></path><path d="M345.6 592.469333v-0.725333c0-42.666667-30.762667-81.536-77.098667-81.536-36.778667 0-58.112 26.453333-65.408 51.2-7.253333-24.789333-28.586667-51.2-65.365333-51.2-46.336 0-77.098667 38.997333-77.098667 81.536v0.725333c-0.256 9.258667 0 103.509333 142.421334 180.224C345.6 696.234667 345.984 601.6 345.6 592.469333z" fill="#FA4141" p-id="1019"></path><path d="M516.266667 726.058667a80.213333 80.213333 0 0 1-37.717334-8.917334 62.592 62.592 0 0 1-25.898666-24.362666 48.597333 48.597333 0 0 1-5.802667-32.085334 53.76 53.76 0 0 1 16.170667-29.568 56.149333 56.149333 0 0 1-13.696-20.522666 48.512 48.512 0 0 1-2.688-23.338667 51.456 51.456 0 0 1 8.533333-22.272 62.933333 62.933333 0 0 1 18.773333-17.578667 76.8 76.8 0 0 1 25.6-9.984 84.224 84.224 0 0 1 28.330667-0.725333 78.976 78.976 0 0 1 26.368 8.533333 65.28 65.28 0 0 1 20.010667 16.597334 8.533333 8.533333 0 0 1 1.28 7.168 10.069333 10.069333 0 0 1-5.034667 5.973333 13.738667 13.738667 0 0 1-8.533333 1.536 12.8 12.8 0 0 1-7.552-3.712 43.477333 43.477333 0 0 0-14.08-11.306667 53.12 53.12 0 0 0-18.517334-5.376 54.698667 54.698667 0 0 0-19.541333 1.493334 48.597333 48.597333 0 0 0-17.066667 8.149333 38.741333 38.741333 0 0 0-11.306666 13.226667 31.914667 31.914667 0 0 0-3.584 15.957333 32.896 32.896 0 0 0 4.778666 15.701333 40.405333 40.405333 0 0 0 12.330667 12.8 10.154667 10.154667 0 0 1 3.285333 3.456 8.234667 8.234667 0 0 1 0 8.533334 10.154667 10.154667 0 0 1-3.285333 3.456 39.68 39.68 0 0 0-12.288 12.8 32.64 32.64 0 0 0-4.821333 15.658666 32.170667 32.170667 0 0 0 3.541333 15.914667 38.4 38.4 0 0 0 11.221333 13.269333 49.706667 49.706667 0 0 0 17.066667 8.149334 55.466667 55.466667 0 0 0 19.498667 1.578666 53.504 53.504 0 0 0 18.517333-5.248 43.946667 43.946667 0 0 0 14.165333-11.178666 12.330667 12.330667 0 0 1 7.637334-4.266667 14.165333 14.165333 0 0 1 9.002666 1.493333 10.112 10.112 0 0 1 5.034667 6.357334 8.533333 8.533333 0 0 1-1.834667 7.424 66.432 66.432 0 0 1-25.130666 18.688 81.578667 81.578667 0 0 1-32.768 6.528z" fill="#62422A" p-id="1020"></path></svg>