<?xml version="1.0" standalone="no"?><!DOCTYPE svg PUBLIC "-//W3C//DTD SVG 1.1//EN" "http://www.w3.org/Graphics/SVG/1.1/DTD/svg11.dtd"><svg t="1675410511246" class="icon" viewBox="0 0 1027 1024" version="1.1" xmlns="http://www.w3.org/2000/svg" p-id="10439" xmlns:xlink="http://www.w3.org/1999/xlink" width="200.5859375" height="200"><path d="M1027.332731 366.386044S597.639467 963.87161 563.444196 1004.1176c-22.42145 26.424549-75.997453 25.98431-98.480331 0C439.890746 975.143763-0.009908 365.188186-0.009908 365.188186z" p-id="10440"></path><path d="M258.348669 0.035936h511.905247c16.995254 0 42.692898 6.920959 51.190524 30.714315l204.762099 337.857462H2.396046l204.762099-337.857462a54.753385 54.753385 0 0 1 51.190524-30.714315z" p-id="10441"></path><path d="M338.656365 617.905568a20.025733 20.025733 0 0 0-5.119053 28.195741l153.571574 215.675918a20.895972 20.895972 0 0 0 28.748599 4.985958 19.995019 19.995019 0 0 0 5.016671-28.195741l-153.571574-215.686157a20.844782 20.844782 0 0 0-28.646217-4.975719z" fill="#EBBA50" p-id="10442"></path><path d="M689.987173 617.905568a19.995019 19.995019 0 0 1 5.016672 28.195741l-153.571574 215.675918a20.885734 20.885734 0 0 1-28.728123 4.985958 20.015495 20.015495 0 0 1-5.119052-28.195741l153.571574-215.686157a20.926686 20.926686 0 0 1 28.830503-4.975719z" fill="#EBBA50" p-id="10443"></path></svg>