<?xml version="1.0" standalone="no"?><!DOCTYPE svg PUBLIC "-//W3C//DTD SVG 1.1//EN" "http://www.w3.org/Graphics/SVG/1.1/DTD/svg11.dtd"><svg t="1675241704542" class="icon" viewBox="0 0 1024 1024" version="1.1" xmlns="http://www.w3.org/2000/svg" p-id="3739" xmlns:xlink="http://www.w3.org/1999/xlink" width="200" height="200"><path d="M813.696 813.696a426.666667 426.666667 0 1 0-603.434667 0 426.666667 426.666667 0 0 0 603.434667 0z" fill="#FFD264" p-id="3740"></path><path d="M735.274667 147.797333a426.666667 426.666667 0 0 1-582.826667 593.621334 426.666667 426.666667 0 1 0 582.826667-593.493334z" fill="#FFC656" p-id="3741"></path><path d="M143.36 557.013333A396.074667 396.074667 0 0 1 853.333333 315.733333 396.16 396.16 0 1 0 196.010667 754.432a393.898667 393.898667 0 0 1-52.650667-197.418667z" fill="#FFD781" p-id="3742"></path><path d="M776.533333 641.322667c-11.349333-36.821333-38.869333-60.672-70.058666-60.672a62.848 62.848 0 0 0-34.133334 10.026666 87.893333 87.893333 0 0 0-19.370666 18.773334c-2.773333 3.285333-5.418667 6.4-8.149334 9.216a59.733333 59.733333 0 0 1-20.821333 13.312 47.744 47.744 0 0 1-29.397333 0 46.933333 46.933333 0 0 1-23.765334-17.066667C555.733333 593.066667 534.058667 580.266667 512 580.266667a66.730667 66.730667 0 0 0-25.045333 5.802666 66.005333 66.005333 0 0 0-20.864 14.976 102.4 102.4 0 0 0-8.533334 10.026667 102.4 102.4 0 0 1-7.125333 8.533333 56.021333 56.021333 0 0 1-17.066667 10.538667 41.984 41.984 0 0 1-24.533333 3.925333 55.466667 55.466667 0 0 1-29.482667-15.786666c-2.56-2.645333-4.992-5.589333-7.765333-8.533334a96.512 96.512 0 0 0-20.352-19.413333 63.232 63.232 0 0 0-33.664-10.069333c-30.634667 0-57.984 23.125333-69.632 58.965333a14.250667 14.250667 0 0 0 0 9.685333 14.592 14.592 0 0 0 6.186667 7.466667 11.776 11.776 0 0 0 8.149333 1.194667 11.477333 11.477333 0 0 0 6.912-4.778667c14.677333-18.474667 38.997333-35.029333 63.402667-26.794667 11.989333 4.266667 21.845333 15.018667 29.866666 25.045334a69.76 69.76 0 0 0 43.52 25.6 60.544 60.544 0 0 0 8.32 0.554666 68.693333 68.693333 0 0 0 53.248-27.904l2.56-3.285333a58.197333 58.197333 0 0 1 14.378667-14.72 55.125333 55.125333 0 0 1 21.717333-8.064 42.368 42.368 0 0 1 24.064 4.266667 67.584 67.584 0 0 1 12.117334 7.68 89.173333 89.173333 0 0 1 11.904 12.501333 107.690667 107.690667 0 0 0 13.994666 14.592 61.952 61.952 0 0 0 84.48-3.882667c2.005333-1.834667 5.418667-5.418667 9.301334-9.557333a238.506667 238.506667 0 0 1 17.066666-17.066667 45.013333 45.013333 0 0 1 55.082667 1.408 105.557333 105.557333 0 0 1 20.821333 20.778667 11.648 11.648 0 0 0 6.869334 4.522667 11.52 11.52 0 0 0 8.149333-1.194667 14.165333 14.165333 0 0 0 6.101333-16.298667z" fill="#5E4939" p-id="3743"></path><path d="M373.76 461.312L276.992 364.544a19.498667 19.498667 0 0 0-27.605333 27.605333l96.768 96.768a19.498667 19.498667 0 0 0 27.605333-27.605333z" fill="#352B2B" p-id="3744"></path><path d="M277.034667 488.917333l96.768-96.768a19.498667 19.498667 0 0 0-27.605334-27.605333l-96.768 96.768a19.498667 19.498667 0 0 0 27.605334 27.605333zM774.656 461.354667l-96.768-96.768a19.498667 19.498667 0 1 0-27.605333 27.605333l96.768 96.768a19.498667 19.498667 0 0 0 27.605333-27.605333z" fill="#352B2B" p-id="3745"></path><path d="M677.888 488.96l96.768-96.768a19.498667 19.498667 0 0 0-27.605333-27.605333l-96.768 96.768a19.498667 19.498667 0 1 0 27.605333 27.605333z" fill="#352B2B" p-id="3746"></path></svg>