<?xml version="1.0" standalone="no"?><!DOCTYPE svg PUBLIC "-//W3C//DTD SVG 1.1//EN" "http://www.w3.org/Graphics/SVG/1.1/DTD/svg11.dtd"><svg t="1675241695626" class="icon" viewBox="0 0 1024 1024" version="1.1" xmlns="http://www.w3.org/2000/svg" p-id="3288" xmlns:xlink="http://www.w3.org/1999/xlink" width="200" height="200"><path d="M813.696 813.696a426.666667 426.666667 0 1 0-603.392 0 426.666667 426.666667 0 0 0 603.392 0z" fill="#FFD264" p-id="3289"></path><path d="M735.445333 147.797333A426.666667 426.666667 0 0 1 152.448 741.418667 426.666667 426.666667 0 1 0 735.445333 147.797333z" fill="#FFC656" p-id="3290"></path><path d="M143.317333 557.013333A396.074667 396.074667 0 0 1 853.333333 315.733333 396.16 396.16 0 1 0 195.968 754.432a393.898667 393.898667 0 0 1-52.650667-197.418667z" fill="#FFD781" p-id="3291"></path><path d="M281.856 518.869333a18.090667 18.090667 0 0 1-17.322667-23.210666 18.645333 18.645333 0 0 1 6.144-9.258667l61.610667-47.957333L268.8 401.066667a18.090667 18.090667 0 1 1 18.346667-31.189334l86.528 51.2a17.792 17.792 0 0 1 6.058666 6.101334 18.304 18.304 0 0 1 2.730667 8.533333 18.517333 18.517333 0 0 1-1.621333 8.533333 17.962667 17.962667 0 0 1-5.376 6.869334L292.992 515.413333a18.048 18.048 0 0 1-11.136 3.456zM742.144 518.869333a18.218667 18.218667 0 0 1-11.136-3.797333L648.533333 450.773333a18.090667 18.090667 0 0 1-5.546666-7.04 17.706667 17.706667 0 0 1-1.578667-8.533333 18.261333 18.261333 0 0 1 2.688-8.533333 17.792 17.792 0 0 1 6.357333-6.101334l86.528-50.944a18.176 18.176 0 0 1 18.474667 31.445334l-63.616 37.376L753.365333 486.4a18.517333 18.517333 0 0 1 6.229334 9.088 18.090667 18.090667 0 0 1-17.365334 23.253333z" fill="#352B2B" p-id="3292"></path><path d="M298.666667 577.450667c12.117333 82.602667 102.912 146.816 213.333333 146.816s201.130667-64.213333 213.333333-146.816z" fill="#62422A" p-id="3293"></path><path d="M384.725333 577.450667v166.4a127.274667 127.274667 0 0 0 254.506667 0v-166.4z" fill="#FF6F72" p-id="3294"></path><path d="M512 767.061333a11.349333 11.349333 0 0 1-11.349333-11.349333v-178.261333h22.784v178.261333a11.434667 11.434667 0 0 1-11.434667 11.349333z" fill="#EF5661" p-id="3295"></path><path d="M512 871.082667A127.573333 127.573333 0 0 0 639.189333 746.666667c-81.066667 78.976-167.552 89.045333-217.6 86.442666a126.549333 126.549333 0 0 0 90.410667 37.973334z" fill="#FF5F66" p-id="3296"></path></svg>