<?xml version="1.0" standalone="no"?><!DOCTYPE svg PUBLIC "-//W3C//DTD SVG 1.1//EN" "http://www.w3.org/Graphics/SVG/1.1/DTD/svg11.dtd"><svg t="1675241707569" class="icon" viewBox="0 0 1024 1024" version="1.1" xmlns="http://www.w3.org/2000/svg" p-id="3888" xmlns:xlink="http://www.w3.org/1999/xlink" width="200" height="200"><path d="M813.696 813.738667a426.666667 426.666667 0 1 0-603.434667 0 426.666667 426.666667 0 0 0 603.434667 0z" fill="#FFD264" p-id="3889"></path><path d="M734.421333 147.370667A426.666667 426.666667 0 0 1 152.917333 742.101333 426.666667 426.666667 0 1 0 734.421333 147.370667z" fill="#FFC656" p-id="3890"></path><path d="M143.402667 557.824a396.117333 396.117333 0 0 1 709.632-243.2A396.16 396.16 0 1 0 196.48 755.2a393.770667 393.770667 0 0 1-53.077333-197.376z" fill="#FFD781" p-id="3891"></path><path d="M512 744.277333c42.666667 0 76.8-58.453333 76.8-130.602666s-34.474667-130.602667-76.8-130.602667-76.8 58.496-76.8 130.602667 34.133333 130.602667 76.8 130.602666z" fill="#62422A" p-id="3892"></path><path d="M576.981333 683.733333c-56.192-30.890667-101.930667-13.354667-128.426666 4.266667 13.909333 34.133333 37.12 56.490667 63.402666 56.490667 27.392-0.128 51.242667-24.32 65.024-60.757334z" fill="#FF6F72" p-id="3893"></path><path d="M380.074667 427.178667l-112.298667 71.466666 2.858667 365.184a423.893333 423.893333 0 0 0 109.525333 54.058667zM644.266667 427.178667l112.128 71.466666-2.773334 365.184a423.893333 423.893333 0 0 1-109.525333 54.058667z" fill="#5CB1FF" p-id="3894"></path><path d="M281.856 511.36a18.133333 18.133333 0 0 1-17.066667-12.202667 18.090667 18.090667 0 0 1-0.256-11.050666 18.474667 18.474667 0 0 1 6.186667-9.130667L332.288 430.933333 268.8 393.642667a18.133333 18.133333 0 0 1 4.266667-33.109334 18.218667 18.218667 0 0 1 13.738666 1.92l86.698667 50.901334A18.133333 18.133333 0 0 1 379.733333 419.456a18.176 18.176 0 0 1 1.109334 17.066667 17.962667 17.962667 0 0 1-5.376 6.869333L292.906667 507.733333a17.749333 17.749333 0 0 1-11.050667 3.626667zM742.144 511.36a17.92 17.92 0 0 1-11.136-3.84L648.533333 443.264a18.389333 18.389333 0 0 1-5.461333-6.912 18.048 18.048 0 0 1 7.424-23.125333l86.528-50.944a18.346667 18.346667 0 0 1 14.08-2.517334 17.365333 17.365333 0 0 1 6.613333 3.072 17.877333 17.877333 0 0 1 4.906667 5.376 18.218667 18.218667 0 0 1 2.346667 6.912 18.090667 18.090667 0 0 1-3.925334 13.738667 17.28 17.28 0 0 1-5.845333 4.608L691.712 430.933333l61.525333 47.957334a18.090667 18.090667 0 0 1-0.597333 28.970666 18.218667 18.218667 0 0 1-10.496 3.413334z" fill="#352B2B" p-id="3895"></path></svg>