<?xml version="1.0" standalone="no"?><!DOCTYPE svg PUBLIC "-//W3C//DTD SVG 1.1//EN" "http://www.w3.org/Graphics/SVG/1.1/DTD/svg11.dtd"><svg t="1675241635036" class="icon" viewBox="0 0 1024 1024" version="1.1" xmlns="http://www.w3.org/2000/svg" p-id="1164" xmlns:xlink="http://www.w3.org/1999/xlink" width="200" height="200"><path d="M932.864 582.229333a426.666667 426.666667 0 1 0-491.093333 350.677334 426.666667 426.666667 0 0 0 491.093333-350.677334z" fill="#FFD264" p-id="1165"></path><path d="M735.445333 147.84A426.666667 426.666667 0 0 1 152.448 741.290667 426.666667 426.666667 0 1 0 735.445333 147.84z" fill="#FFC656" p-id="1166"></path><path d="M143.317333 557.013333A396.117333 396.117333 0 0 1 853.333333 315.733333 396.16 396.16 0 1 0 195.968 754.773333a394.282667 394.282667 0 0 1-52.650667-197.76z" fill="#FFD781" p-id="1167"></path><path d="M693.333333 716.544a182.528 182.528 0 0 0-362.666666 0z" fill="#62422A" p-id="1168"></path><path d="M330.666667 716.544s152.96-112.768 362.666666 0z" fill="#FF6F72" p-id="1169"></path><path d="M281.856 518.912a18.133333 18.133333 0 0 1-17.066667-12.202667 18.090667 18.090667 0 0 1-0.256-11.050666 18.474667 18.474667 0 0 1 6.144-9.258667l61.610667-47.872L268.8 401.066667a18.090667 18.090667 0 0 1-6.4-24.746667 18.005333 18.005333 0 0 1 24.746667-6.442667l86.357333 51.029334a17.877333 17.877333 0 0 1 6.229333 6.144 18.090667 18.090667 0 0 1 2.688 8.533333 18.304 18.304 0 0 1-1.578666 8.533333 17.962667 17.962667 0 0 1-5.376 6.826667l-82.474667 64.298667a17.834667 17.834667 0 0 1-11.136 3.669333zM742.144 518.912a17.664 17.664 0 0 1-11.136-3.84l-82.517333-64a18.261333 18.261333 0 0 1-5.461334-6.869333 17.834667 17.834667 0 0 1-1.578666-8.533334 18.218667 18.218667 0 0 1 9.002666-14.506666l86.528-50.901334A18.133333 18.133333 0 0 1 755.2 401.066667l-63.616 37.461333L753.237333 486.4a18.048 18.048 0 0 1 5.973334 20.181333 17.834667 17.834667 0 0 1-6.570667 8.832 18.176 18.176 0 0 1-10.496 3.498667z" fill="#352B2B" p-id="1170"></path><path d="M558.250667 560.682667a184.234667 184.234667 0 0 0-34.133334-5.845334v43.52h34.133334zM507.050667 554.666667a182.101333 182.101333 0 0 0-34.133334 4.266666v39.338667h34.133334z" fill="#FFFFFF" p-id="1171"></path></svg>