<?xml version="1.0" standalone="no"?><!DOCTYPE svg PUBLIC "-//W3C//DTD SVG 1.1//EN" "http://www.w3.org/Graphics/SVG/1.1/DTD/svg11.dtd"><svg t="1675241650239" class="icon" viewBox="0 0 1024 1024" version="1.1" xmlns="http://www.w3.org/2000/svg" p-id="1616" xmlns:xlink="http://www.w3.org/1999/xlink" width="200" height="200"><path d="M813.738667 813.738667a426.666667 426.666667 0 1 0-603.434667 0 426.666667 426.666667 0 0 0 603.434667 0z" fill="#FFD264" p-id="1617"></path><path d="M735.232 147.84A426.666667 426.666667 0 0 1 152.448 741.205333 426.666667 426.666667 0 1 0 735.232 147.84z" fill="#FFC656" p-id="1618"></path><path d="M143.36 557.013333A396.074667 396.074667 0 0 1 853.333333 315.733333 396.16 396.16 0 1 0 195.968 754.432a393.856 393.856 0 0 1-52.608-197.418667z" fill="#FFD781" p-id="1619"></path><path d="M386.261333 408.490667c0 29.312-14.037333 52.992-31.402666 52.992s-31.445333-23.68-31.445334-52.992 14.08-52.736 31.445334-52.736 31.402667 23.466667 31.402666 52.736zM700.629333 408.490667c0 29.312-14.037333 52.992-31.445333 52.992s-31.402667-23.68-31.402667-52.992 14.037333-52.736 31.402667-52.736 31.445333 23.466667 31.445333 52.736z" fill="#352B2B" p-id="1620"></path><path d="M225.28 552.362667a288.597333 288.597333 0 0 0 573.44 0z" fill="#62422A" p-id="1621"></path><path d="M313.984 729.6a288.256 288.256 0 0 0 389.290667 6.229333l-2.645334-6.229333c-192.512-93.866667-384.042667-1.408-386.645333 0z" fill="#FF6F72" p-id="1622"></path><path d="M473.6 552.362667h34.133333v42.538666h-34.133333zM524.8 552.362667h34.133333v42.538666h-34.133333z" fill="#FFFFFF" p-id="1623"></path></svg>