<?xml version="1.0" standalone="no"?><!DOCTYPE svg PUBLIC "-//W3C//DTD SVG 1.1//EN" "http://www.w3.org/Graphics/SVG/1.1/DTD/svg11.dtd"><svg t="1675241698746" class="icon" viewBox="0 0 1024 1024" version="1.1" xmlns="http://www.w3.org/2000/svg" p-id="3438" xmlns:xlink="http://www.w3.org/1999/xlink" width="200" height="200"><path d="M932.906667 627.2a426.666667 426.666667 0 1 0-491.093334 350.677333A426.666667 426.666667 0 0 0 932.906667 627.2z" fill="#FFD264" p-id="3439"></path><path d="M735.445333 192.810667A426.666667 426.666667 0 0 1 152.448 786.474667 426.666667 426.666667 0 1 0 735.445333 192.810667z" fill="#FFC656" p-id="3440"></path><path d="M143.317333 601.984A396.117333 396.117333 0 0 1 853.333333 360.490667 396.16 396.16 0 1 0 195.968 799.402667a393.898667 393.898667 0 0 1-52.650667-197.418667z" fill="#FFD781" p-id="3441"></path><path d="M337.066667 621.312a14.122667 14.122667 0 0 0-23.296 5.973333 14.165333 14.165333 0 0 0 0.384 9.386667 213.802667 213.802667 0 0 0 395.434666 3.882667 13.781333 13.781333 0 0 0 0.469334-9.344 14.037333 14.037333 0 0 0-14.592-9.984 13.952 13.952 0 0 0-8.533334 3.84c-62.378667 60.757333-194.986667 146.901333-349.866666-3.754667z" fill="#62422A" p-id="3442"></path><path d="M401.834667 495.786667a79.061333 79.061333 0 0 0-146.218667-1.450667 13.013333 13.013333 0 0 0-0.469333 8.533333 12.8 12.8 0 0 0 13.269333 9.130667 12.8 12.8 0 0 0 7.808-3.541333c23.637333-22.954667 61.056-41.386667 105.088 1.237333a12.8 12.8 0 0 0 8.874667 3.626667 12.8 12.8 0 0 0 7.125333-2.176 12.8 12.8 0 0 0 4.522667-15.317334zM768.426667 495.786667a79.061333 79.061333 0 0 0-146.176-1.450667 12.8 12.8 0 0 0-0.426667 8.533333 12.330667 12.330667 0 0 0 4.992 6.869334 12.8 12.8 0 0 0 8.192 2.218666 12.8 12.8 0 0 0 7.765333-3.498666c23.68-22.954667 61.056-41.386667 105.130667 1.237333a12.501333 12.501333 0 0 0 8.832 3.626667 12.8 12.8 0 0 0 7.125333-2.176 12.8 12.8 0 0 0 4.565334-15.317334z" fill="#352B2B" p-id="3443"></path><path d="M784.256 112.853333a92.202667 92.202667 0 0 0-29.866667-29.610666 242.858667 242.858667 0 0 0-71.338666-29.013334 524.117333 524.117333 0 0 0-147.669334-13.141333 8.789333 8.789333 0 0 0-5.76 2.602667A8.874667 8.874667 0 0 0 529.066667 55.466667a9.002667 9.002667 0 0 0 5.546666 3.114666c56.192 7.253333 99.157333 16.810667 135.168 29.866667a192 192 0 0 1 53.973334 27.690667 86.954667 86.954667 0 0 1 8.533333 8.149333 38.4 38.4 0 0 1 4.992 7.509333 13.482667 13.482667 0 0 1 0.256 11.818667c-3.712 8.533333-17.066667 18.730667-36.096 27.093333a318.122667 318.122667 0 0 1-60.373333 18.730667 553.941333 553.941333 0 0 1-66.474667 9.984 682.666667 682.666667 0 0 1-68.266667 3.157333c-23.466667 0-46.421333-1.024-68.266666-3.157333a560.512 560.512 0 0 1-66.346667-9.984A312.490667 312.490667 0 0 1 311.68 170.666667c-18.858667-8.533333-32.213333-18.602667-35.797333-27.264a14.122667 14.122667 0 0 1-1.024-5.802667 13.866667 13.866667 0 0 1 1.493333-5.333333 50.944 50.944 0 0 1 14.165333-16 193.834667 193.834667 0 0 1 54.272-27.562667c36.224-13.184 79.232-22.613333 135.168-29.866667a8.96 8.96 0 0 0 5.717334-2.986666 8.533333 8.533333 0 0 0 2.133333-6.144 8.746667 8.746667 0 0 0-8.533333-8.533334 527.146667 527.146667 0 0 0-147.882667 13.098667 247.466667 247.466667 0 0 0-71.466667 28.672 93.568 93.568 0 0 0-29.866666 29.354667A58.666667 58.666667 0 0 0 221.866667 133.845333a52.010667 52.010667 0 0 0 1.962666 23.722667 80 80 0 0 0 25.045334 35.84 172.629333 172.629333 0 0 0 33.792 21.973333 344.064 344.064 0 0 0 72.789333 25.941334 679.509333 679.509333 0 0 0 301.738667 0 346.624 346.624 0 0 0 72.874666-25.6 176.725333 176.725333 0 0 0 34.133334-21.888 99.370667 99.370667 0 0 0 14.634666-15.317334 65.834667 65.834667 0 0 0 10.496-19.882666 54.485333 54.485333 0 0 0-5.205333-45.781334z" fill="#5CB1FF" p-id="3444"></path><path d="M764.074667 193.877333a101.376 101.376 0 0 0 14.634666-15.317333 65.536 65.536 0 0 0 10.752-20.053333 52.693333 52.693333 0 0 0 0-34.133334c-26.24 106.666667-249.514667 128.597333-318.549333 132.864 11.562667 0.554667 23.338667 0.896 35.456 0.981334A645.888 645.888 0 0 0 657.066667 241.322667a346.624 346.624 0 0 0 72.874666-25.6 179.2 179.2 0 0 0 34.133334-21.845334z" fill="#409EF4" p-id="3445"></path></svg>