<?xml version="1.0" standalone="no"?><!DOCTYPE svg PUBLIC "-//W3C//DTD SVG 1.1//EN" "http://www.w3.org/Graphics/SVG/1.1/DTD/svg11.dtd"><svg t="1675241786125" class="icon" viewBox="0 0 1052 1024" version="1.1" xmlns="http://www.w3.org/2000/svg" p-id="913" xmlns:xlink="http://www.w3.org/1999/xlink" width="205.46875" height="200"><path d="M404.542356 506.598933c0-42.666388-30.293136-76.94172-67.555114-76.94172s-67.412893 34.559774-67.412894 76.94172S299.867484 583.113989 336.987242 583.113989s67.555115-34.133111 67.555114-76.515056zM336.987242 526.225472c-3.697754 0-10.524376-7.67995-10.524376-20.053203s6.826622-20.053202 10.524376-20.053202 10.666597 7.537729 10.666597 20.053202S341.538323 526.225472 336.987242 526.225472zM697.091558 429.657213c-37.261979 0-67.555115 34.559774-67.555115 76.94172S660.114021 583.113989 697.091558 583.113989s67.412893-34.559774 67.412893-76.94172-30.008693-76.515056-67.412893-76.515056zM697.091558 526.225472c-3.839975 0-10.666597-7.67995-10.666597-20.053203s6.826622-20.053202 10.666597-20.053202 10.524376 7.537729 10.524375 20.053202S701.073754 526.225472 697.091558 526.225472zM657.269595 777.530498c-56.888518 0-104.105987-55.466305-111.501494-127.145837a32.142012 32.142012 0 0 0 0-3.697754 63.146254 63.146254 0 0 0 26.453161-52.337436 58.879616 58.879616 0 0 0-55.181862-61.724041 58.879616 58.879616 0 0 0-55.181862 61.724041 63.146254 63.146254 0 0 0 26.45316 52.337436 32.142012 32.142012 0 0 0 0 3.697754c-7.395507 71.110647-54.470756 127.145837-111.501494 127.145837a28.444259 28.444259 0 0 0 0 56.888517c58.168509 0 109.510396-35.413102 140.087974-89.172751 30.577578 53.759649 81.919465 89.172751 140.087975 89.172751a28.444259 28.444259 0 0 0 0-56.888517z" p-id="914"></path><path d="M1031.169377 77.232847C974.565302 2.424446 816.557444-2.69552 727.669136 0.860012a63.430697 63.430697 0 0 0-51.62633 31.430906h-298.664717A63.430697 63.430697 0 0 0 325.325095 0.860012C236.294566-2.837741 78.144487 2.424446 21.540412 77.232847c-15.786564 20.90653-31.004242 56.888518-14.22213 109.93706a636.44029 636.44029 0 0 0 66.132902 144.496835 125.865845 125.865845 0 0 0 21.190973 25.173169L75.015618 866.134364C75.015618 952.889353 134.60634 1024 207.708085 1024h618.947071c73.101745 0 132.692467-71.110647 132.692467-157.865636l-19.199874-495.641209a121.314764 121.314764 0 0 0 39.110856-38.826413 648.671321 648.671321 0 0 0 65.564016-144.354614c17.350998-53.190764 2.133319-89.172751-13.653244-110.079281zM61.931259 169.534467c-10.524376-32.142012-2.133319-48.497461 4.977746-57.884067C93.077723 77.090626 174.712745 56.895202 284.649805 56.895202c12.515474 0 25.457612 0 38.684192 0.853328 1.706656 0 5.688852 3.555532 7.395508 10.097712a26.879825 26.879825 0 0 1 0 11.662146c-0.711106 3.128868-1.848877 6.54218-2.702205 9.813269s-1.991098 8.391056-3.27109 12.799916-2.275541 6.257737-3.413311 9.386606-3.413311 9.955491-5.54663 15.217678c-0.853328 2.133319-1.848877 4.40886-2.844426 6.399958-2.702205 6.54218-5.404409 13.22658-8.675499 20.053203l-3.27109 6.115515c-3.413311 7.253286-6.968843 14.222129-11.093261 21.90208a4.977745 4.977745 0 0 1 0 1.13777 988.580213 988.580213 0 0 1-81.066137 123.448083A58.595173 58.595173 0 0 1 179.406048 327.11566a44.657486 44.657486 0 0 1-39.679741-6.399958 66.701787 66.701787 0 0 1-18.204326-19.484317 586.378394 586.378394 0 0 1-59.590722-131.696918zM826.655156 967.111482H207.708085c-41.81306 0-75.80395-45.226371-75.803949-99.554905l18.488768-482.272408h3.839975a94.57716 94.57716 0 0 0 10.95104 0.853328 86.186104 86.186104 0 0 0 12.08881 0h3.413311c3.27109 0 6.54218-1.13777 9.671048-1.991098l5.262188-1.564434 7.537728-2.559983 5.262188-2.417762c2.417762-1.13777 4.835524-2.275541 7.111065-3.555533l5.119966-3.128868c2.275541-1.422213 4.693303-2.986647 6.968844-4.693303l4.551081-3.555532c2.417762-1.991098 4.693303-4.124418 7.111065-6.399959s2.417762-2.133319 3.555532-3.413311c3.413311-3.555532 6.684401-7.395507 9.813269-11.377703l9.671048-12.942138C313.094064 260.840537 369.982582 170.672237 386.764694 91.028312s0-1.13777 0-1.706655h278.753736v1.848877c17.63544 84.052785 81.919465 181.901035 132.834689 249.171707a125.581402 125.581402 0 0 0 8.81772 10.382154l2.986647 2.844426c2.133319 2.133319 4.266639 4.266639 6.54218 6.257737l3.839975 2.844426c2.133319 1.706656 4.124418 3.413311 6.399958 4.977745l4.124417 2.417762c2.275541 1.422213 4.40886 2.844426 6.684401 3.982196l4.266639 1.991098a77.368384 77.368384 0 0 0 7.111065 3.128869l4.266638 1.564434 7.537729 2.275541 4.266639 0.853327a72.817302 72.817302 0 0 0 7.67995 1.422213h10.524375l18.63099 480.565752C902.174663 921.174005 867.75711 967.111482 826.655156 967.111482z m164.123373-797.577015a581.54287 581.54287 0 0 1-59.590722 131.554696A59.732943 59.732943 0 0 1 901.463557 327.11566a49.635232 49.635232 0 0 1-56.888518-20.764309C796.646463 243.205097 737.055741 153.036797 721.55362 79.650609a26.879825 26.879825 0 0 1 0-11.662146c1.706656-6.684401 5.688852-10.239933 7.67995-10.239933C742.886814 56.895202 755.686731 56.895202 768.202204 56.895202c109.652618 0 191.429861 20.195424 217.59858 54.755198 7.111065 9.386605 15.502121 25.742054 4.977745 57.884067z" p-id="915"></path></svg>