<?xml version="1.0" standalone="no"?><!DOCTYPE svg PUBLIC "-//W3C//DTD SVG 1.1//EN" "http://www.w3.org/Graphics/SVG/1.1/DTD/svg11.dtd"><svg t="1675241641394" class="icon" viewBox="0 0 1024 1024" version="1.1" xmlns="http://www.w3.org/2000/svg" p-id="1315" xmlns:xlink="http://www.w3.org/1999/xlink" width="200" height="200"><path d="M813.696 813.696a426.666667 426.666667 0 1 0-603.434667 0 426.666667 426.666667 0 0 0 603.434667 0z" fill="#FFD264" p-id="1316"></path><path d="M735.232 147.797333A426.666667 426.666667 0 0 1 152.448 741.461333 426.666667 426.666667 0 1 0 735.232 147.797333z" fill="#FFC656" p-id="1317"></path><path d="M143.274667 557.013333A396.117333 396.117333 0 0 1 853.333333 315.733333 396.16 396.16 0 1 0 195.968 754.474667a394.410667 394.410667 0 0 1-52.693333-197.461334z" fill="#FFD781" p-id="1318"></path><path d="M512 838.997333c62.549333 0 113.237333-85.930667 113.237333-192s-50.688-192-113.237333-192-113.194667 85.930667-113.194667 192 50.688 192 113.194667 192z" fill="#62422A" p-id="1319"></path><path d="M607.573333 749.909333c-82.645333-45.397333-149.930667-19.626667-188.8 6.144 20.394667 50.048 54.528 82.944 93.184 82.944 40.192 0 75.477333-35.541333 95.616-89.088z" fill="#FF6F72" p-id="1320"></path><path d="M404.309333 456.533333c35.626667-72.533333 22.826667-152.021333-28.672-177.28s-122.069333 13.141333-157.866666 85.802667-22.826667 151.978667 28.672 177.28S368.64 529.066667 404.309333 456.533333zM777.557333 541.866667c51.498667-25.258667 64.298667-104.661333 28.672-177.28s-106.282667-110.933333-157.866666-85.802667-64.298667 104.618667-28.629334 177.28S726.101333 567.466667 777.557333 541.866667z" fill="#FFFFFF" p-id="1321"></path><path d="M751.445333 284.202667a12.074667 12.074667 0 0 1-4.778666-0.938667 12.416 12.416 0 0 1-6.784-6.784 12.074667 12.074667 0 0 1-0.938667-4.778667V115.2a12.416 12.416 0 0 1 3.456-8.533333 12.544 12.544 0 0 1 21.333333 8.832v156.202666a12.074667 12.074667 0 0 1-0.938666 4.778667 12.8 12.8 0 0 1-6.784 6.784 12.245333 12.245333 0 0 1-4.565334 0.938667zM809.216 258.901333a13.269333 13.269333 0 0 1-4.821333-0.938666 13.056 13.056 0 0 1-4.053334-2.730667 12.8 12.8 0 0 1-2.730666-4.266667 13.269333 13.269333 0 0 1-0.938667-4.821333V133.888a12.544 12.544 0 0 1 25.045333 0v112.469333a12.544 12.544 0 0 1-12.501333 12.544zM867.413333 341.973333a12.544 12.544 0 0 1-12.501333-12.501333V161.024a12.544 12.544 0 0 1 25.045333 0v168.448a12.544 12.544 0 0 1-12.544 12.501333z" fill="#474549" p-id="1322"></path><path d="M268.8 485.888a12.8 12.8 0 0 1-10.624-19.882667L344.106667 337.066667a12.8 12.8 0 0 1 21.333333 14.208l-86.058667 128.896a12.8 12.8 0 0 1-10.581333 5.717333zM755.2 485.888a12.8 12.8 0 0 1-10.666667-5.717333L658.432 351.146667a12.8 12.8 0 1 1 21.333333-14.208l86.016 129.066666a12.8 12.8 0 0 1-10.624 19.882667z" fill="#303030" p-id="1323"></path></svg>