<?xml version="1.0" standalone="no"?><!DOCTYPE svg PUBLIC "-//W3C//DTD SVG 1.1//EN" "http://www.w3.org/Graphics/SVG/1.1/DTD/svg11.dtd"><svg t="1676983356950" class="icon" viewBox="0 0 1024 1024" version="1.1" xmlns="http://www.w3.org/2000/svg" p-id="2366" xmlns:xlink="http://www.w3.org/1999/xlink" width="200" height="200"><path d="M501.68 883.673 98.264 480.258c-17.387-17.387-45.576-17.387-62.963 0-17.387 17.387-17.387 45.576 0 62.963l464.586 464.586 464.586-464.586c17.387-17.387 17.387-45.576 0-62.963s-45.577-17.387-62.964 0L501.68 883.673zM500.957 437.733 98.264 35.04c-17.387-17.387-45.576-17.387-62.963 0-17.387 17.387-17.387 45.576 0 62.963l464.586 464.585L964.473 98.003c17.387-17.387 17.387-45.576 0-62.963-17.387-17.387-45.577-17.387-62.964 0L500.957 437.733z" fill="#272636" p-id="2367"></path></svg>