<?xml version="1.0" standalone="no"?><!DOCTYPE svg PUBLIC "-//W3C//DTD SVG 1.1//EN" "http://www.w3.org/Graphics/SVG/1.1/DTD/svg11.dtd"><svg t="1675241654059" class="icon" viewBox="0 0 1024 1024" version="1.1" xmlns="http://www.w3.org/2000/svg" p-id="1767" xmlns:xlink="http://www.w3.org/1999/xlink" width="200" height="200"><path d="M813.781333 813.696a426.666667 426.666667 0 1 0-603.434666 0 426.666667 426.666667 0 0 0 603.434666 0z" fill="#FFD264" p-id="1768"></path><path d="M735.232 147.84A426.666667 426.666667 0 0 1 152.661333 741.205333 426.666667 426.666667 0 1 0 735.232 147.84z" fill="#FFC656" p-id="1769"></path><path d="M143.36 557.013333A396.074667 396.074667 0 0 1 853.333333 315.733333 396.16 396.16 0 1 0 195.968 754.602667a393.898667 393.898667 0 0 1-52.608-197.589334z" fill="#FFD781" p-id="1770"></path><path d="M386.261333 408.490667c0 29.312-14.08 52.992-31.402666 52.992s-31.445333-23.68-31.445334-52.992 14.08-52.736 31.445334-52.736 31.402667 23.466667 31.402666 52.736zM700.629333 408.490667c0 29.312-14.037333 52.992-31.445333 52.992s-31.402667-23.68-31.402667-52.992 14.037333-52.736 31.402667-52.736 31.445333 23.466667 31.445333 52.736z" fill="#352B2B" p-id="1771"></path><path d="M764.074667 319.061333c-4.608-1.365333-9.088-2.602667-13.482667-3.797333-9.557333-2.730667-18.602667-5.034667-27.392-8.277333a239.616 239.616 0 0 1-35.925333-15.274667 213.632 213.632 0 0 1-32.469334-21.077333 319.104 319.104 0 0 1-30.933333-28.373334 1.92 1.92 0 0 0-0.981333-0.469333 1.664 1.664 0 0 0-1.109334 0 1.792 1.792 0 0 0-0.810666 0.682667 1.578667 1.578667 0 0 0-0.256 1.066666 81.066667 81.066667 0 0 0 16.64 43.562667 106.666667 106.666667 0 0 0 36.096 30.72 112.298667 112.298667 0 0 0 43.605333 12.501333h1.749333a93.866667 93.866667 0 0 0 45.525334-8.064 1.578667 1.578667 0 0 0 0.768-0.725333 1.536 1.536 0 0 0 0.256-1.066667 1.834667 1.834667 0 0 0-0.426667-0.981333 1.664 1.664 0 0 0-0.853333-0.426667z" fill="#414042" p-id="1772"></path><path d="M259.968 319.061333l13.44-3.797333c9.6-2.730667 18.602667-5.034667 27.392-8.277333a239.616 239.616 0 0 0 35.925333-15.274667 222.165333 222.165333 0 0 0 32.554667-21.077333 312.832 312.832 0 0 0 30.848-28.373334 2.346667 2.346667 0 0 1 1.024-0.512 1.962667 1.962667 0 0 1 1.109333 0 1.792 1.792 0 0 1 0.810667 0.682667 2.346667 2.346667 0 0 1 0.298667 1.066667 81.834667 81.834667 0 0 1-16.682667 43.562666 107.52 107.52 0 0 1-36.096 30.72 112.725333 112.725333 0 0 1-43.648 12.501334h-1.749333a93.44 93.44 0 0 1-45.44-8.064 1.749333 1.749333 0 0 1-0.853334-0.725334 1.792 1.792 0 0 1-0.256-1.066666 2.218667 2.218667 0 0 1 0.426667-0.981334 1.962667 1.962667 0 0 1 0.896-0.384z" fill="#474549" p-id="1773"></path><path d="M602.069333 576.682667a135.125333 135.125333 0 0 0-90.069333-32.213334 142.037333 142.037333 0 0 0-89.6 32.426667 123.733333 123.733333 0 0 0-29.866667 37.034667 101.973333 101.973333 0 0 0-11.733333 45.056 8.192 8.192 0 0 0 5.589333 7.765333 7.978667 7.978667 0 0 0 4.992 0 7.850667 7.850667 0 0 0 4.266667-2.858667 191.530667 191.530667 0 0 1 25.6-27.648 141.568 141.568 0 0 1 91.264-34.133333 131.2 131.2 0 0 1 61.994667 15.018667 160.64 160.64 0 0 1 53.930666 46.933333 7.893333 7.893333 0 0 0 2.901334 2.389333 7.68 7.68 0 0 0 3.626666 0.853334 8.533333 8.533333 0 0 0 2.730667-0.426667 8.021333 8.021333 0 0 0 4.266667-3.072 8.149333 8.149333 0 0 0 1.493333-4.821333c-0.725333-29.994667-16.256-60.672-41.386667-82.304z" fill="#62422A" p-id="1774"></path><path d="M706.816 489.002667c-126.421333 144.512-112.341333 227.413333-112.341333 227.413333a112.384 112.384 0 1 0 224.682666 0s14.293333-82.901333-112.341333-227.413333z" fill="#5CB1FF" p-id="1775"></path><path d="M623.189333 791.552a112.341333 112.341333 0 0 0 196.010667-75.093333s5.845333-35.029333-24.405333-98.730667c-22.528 145.621333-113.877333 172.117333-171.605334 173.824z" fill="#409EF4" p-id="1776"></path></svg>