<?xml version="1.0" standalone="no"?><!DOCTYPE svg PUBLIC "-//W3C//DTD SVG 1.1//EN" "http://www.w3.org/Graphics/SVG/1.1/DTD/svg11.dtd"><svg t="1675241681957" class="icon" viewBox="0 0 1024 1024" version="1.1" xmlns="http://www.w3.org/2000/svg" p-id="2680" xmlns:xlink="http://www.w3.org/1999/xlink" width="200" height="200"><path d="M813.738667 813.696a426.666667 426.666667 0 1 0-603.434667 0 426.666667 426.666667 0 0 0 603.434667 0z" fill="#FFD264" p-id="2681"></path><path d="M735.232 147.797333A426.666667 426.666667 0 0 1 152.661333 741.418667 426.666667 426.666667 0 1 0 735.232 147.797333z" fill="#FFC656" p-id="2682"></path><path d="M143.36 557.013333A396.074667 396.074667 0 0 1 853.333333 315.733333 396.16 396.16 0 1 0 195.968 754.432a393.856 393.856 0 0 1-52.608-197.418667z" fill="#FFD781" p-id="2683"></path><path d="M386.261333 482.901333c0 29.226667-14.08 52.949333-31.402666 52.949334S323.413333 512 323.413333 482.901333s14.08-53.034667 31.445334-53.034666 31.402667 23.722667 31.402666 53.034666zM700.629333 482.901333c0 29.226667-14.037333 52.949333-31.402666 52.949334s-31.445333-23.722667-31.445334-52.949334 14.037333-53.034667 31.445334-53.034666 31.402667 23.722667 31.402666 53.034666z" fill="#2D292A" p-id="2684"></path><path d="M373.248 675.626667a171.946667 171.946667 0 0 1 80.64-42.922667 218.026667 218.026667 0 0 1 92.032-1.706667 230.826667 230.826667 0 0 1 84.48 35.072 199.765333 199.765333 0 0 1 62.08 65.066667 9.770667 9.770667 0 0 1 1.365333 4.992 9.898667 9.898667 0 0 1-1.365333 5.034667 9.941333 9.941333 0 0 1-8.533333 4.992 9.813333 9.813333 0 0 1-4.266667-1.066667l-9.386667-4.608c-21.973333-10.837333-42.666667-21.333333-63.744-29.397333a407.722667 407.722667 0 0 0-71.765333-21.333334 354.133333 354.133333 0 0 0-73.984-6.272 458.112 458.112 0 0 0-78.506667 8.96 10.112 10.112 0 0 1-10.709333-5.205333 10.325333 10.325333 0 0 1-1.024-6.186667 10.24 10.24 0 0 1 2.858667-5.589333z" fill="#62422A" p-id="2685"></path><path d="M926.165333 401.408a428.074667 428.074667 0 0 0-88.874666-168.192L216.234667 200.832a429.653333 429.653333 0 0 0-105.941334 157.866667z" fill="#FFFEE6" p-id="2686"></path><path d="M250.965333 365.696l468.352-138.666667-391.125333 143.061334z" fill="#F1F1E7" p-id="2687"></path><path d="M201.856 214.912A428.458667 428.458667 0 0 0 93.866667 412.245333l712.917333-211.114666a427.946667 427.946667 0 0 0-197.888-106.666667z" fill="#FFFEF3" p-id="2688"></path><path d="M181.589333 237.397333l514.688-112.426666a424.448 424.448 0 0 0-87.381333-30.506667l-407.04 120.448c-6.997333 7.296-13.824 14.72-20.266667 22.485333z" fill="#F9F9EE" p-id="2689"></path><path d="M252.373333 402.901333l13.397334-3.797333c9.642667-2.645333 18.688-5.034667 27.392-8.277333a240.128 240.128 0 0 0 35.968-15.36 212.864 212.864 0 0 0 32.512-21.077334A308.138667 308.138667 0 0 0 392.533333 326.144a1.877333 1.877333 0 0 1 2.090667-0.384 2.346667 2.346667 0 0 1 0.853333 0.725333 1.877333 1.877333 0 0 1 0.256 1.066667A81.493333 81.493333 0 0 1 379.050667 371.2a108.117333 108.117333 0 0 1-36.053334 30.677333 112 112 0 0 1-43.648 12.416h-1.792a93.866667 93.866667 0 0 1-45.44-8.106666 1.493333 1.493333 0 0 1-0.810666-0.853334 1.834667 1.834667 0 0 1-0.298667-1.066666 2.432 2.432 0 0 1 0.469333-0.938667 1.962667 1.962667 0 0 1 0.896-0.426667z" fill="#474549" p-id="2690"></path></svg>