<?xml version="1.0" standalone="no"?><!DOCTYPE svg PUBLIC "-//W3C//DTD SVG 1.1//EN" "http://www.w3.org/Graphics/SVG/1.1/DTD/svg11.dtd"><svg t="1675241646018" class="icon" viewBox="0 0 1024 1024" version="1.1" xmlns="http://www.w3.org/2000/svg" p-id="1465" xmlns:xlink="http://www.w3.org/1999/xlink" width="200" height="200"><path d="M780.8 813.738667a426.666667 426.666667 0 1 0-603.434667 0 426.666667 426.666667 0 0 0 603.434667 0z" fill="#FFD264" p-id="1466"></path><path d="M702.464 147.797333A426.666667 426.666667 0 0 1 119.722667 741.333333 426.666667 426.666667 0 1 0 702.464 147.797333z" fill="#FFC656" p-id="1467"></path><path d="M110.506667 556.970667a396.16 396.16 0 0 1 710.016-241.493334 396.16 396.16 0 1 0-657.493334 438.954667 393.898667 393.898667 0 0 1-52.522666-197.461333z" fill="#FFD781" p-id="1468"></path><path d="M640.341333 566.144c4.266667-0.512 7.04 4.992 6.997334 9.088a129.962667 129.962667 0 0 1-15.018667 57.6 161.664 161.664 0 0 1-38.4 47.530667 183.125333 183.125333 0 0 1-114.816 41.642666 173.866667 173.866667 0 0 1-115.669333-41.429333C331.050667 652.8 311.466667 613.546667 310.741333 575.445333c0-4.266667 2.858667-10.026667 7.765334-9.173333 4.010667 0.768 7.253333 6.229333 10.026666 8.533333 4.522667 3.754667 9.258667 7.381333 14.08 10.794667a296.874667 296.874667 0 0 0 29.866667 18.474667 226.901333 226.901333 0 0 0 125.696 27.776 217.130667 217.130667 0 0 0 79.573333-23.509334 275.114667 275.114667 0 0 0 42.24-26.88c4.992-3.84 13.312-14.165333 19.498667-15.36z" fill="#62422A" p-id="1469"></path><path d="M348.458667 435.626667c0 29.226667-14.08 52.992-31.445334 52.992s-31.445333-23.552-31.445333-52.992 14.08-52.992 31.445333-52.992 31.445333 23.722667 31.445334 52.992zM698.837333 453.205333a79.061333 79.061333 0 0 0-146.176-1.450666 12.8 12.8 0 0 0-0.426666 8.533333 12.8 12.8 0 0 0 4.992 6.869333 12.8 12.8 0 0 0 15.957333-1.28c23.68-22.997333 61.141333-41.429333 105.130667 1.237334a12.8 12.8 0 0 0 8.917333 3.669333 13.226667 13.226667 0 0 0 5.973333-1.536 12.373333 12.373333 0 0 0 4.522667-4.266667 12.8 12.8 0 0 0 1.28-11.861333z" fill="#352B2B" p-id="1470"></path><path d="M820.522667 120.192C789.333333 272.512 669.866667 308.394667 669.866667 308.394667s119.466667 35.84 150.784 188.16c31.402667-152.32 150.784-188.16 150.784-188.16s-119.381333-35.882667-150.912-188.202667z" fill="#FFFEF3" p-id="1471"></path><path d="M820.522667 120.192C789.333333 272.512 669.866667 308.394667 669.866667 308.394667s160.341333 23.424 150.656-188.202667z" fill="#F9F9EE" p-id="1472"></path></svg>