<?xml version="1.0" standalone="no"?><!DOCTYPE svg PUBLIC "-//W3C//DTD SVG 1.1//EN" "http://www.w3.org/Graphics/SVG/1.1/DTD/svg11.dtd"><svg t="1675241685208" class="icon" viewBox="0 0 1024 1024" version="1.1" xmlns="http://www.w3.org/2000/svg" p-id="2832" xmlns:xlink="http://www.w3.org/1999/xlink" width="200" height="200"><path d="M813.738667 813.696a426.666667 426.666667 0 1 0-603.434667 0 426.666667 426.666667 0 0 0 603.434667 0z" fill="#FFD264" p-id="2833"></path><path d="M735.232 147.84A426.666667 426.666667 0 0 1 152.448 741.205333 426.666667 426.666667 0 1 0 735.232 147.84z" fill="#FFC656" p-id="2834"></path><path d="M143.402667 557.013333A396.117333 396.117333 0 0 1 853.333333 315.733333 396.16 396.16 0 1 0 195.968 754.602667a393.984 393.984 0 0 1-52.565333-197.589334z" fill="#FFD781" p-id="2835"></path><path d="M386.218667 408.490667c0 29.312-14.037333 52.992-31.445334 52.992s-31.402667-23.68-31.402666-52.992 14.122667-52.992 31.402666-52.992 31.445333 23.722667 31.445334 52.992zM700.629333 408.490667c0 29.312-14.037333 52.992-31.445333 52.992s-31.402667-23.68-31.402667-52.992 14.037333-52.736 31.232-52.736 31.616 23.466667 31.616 52.736z" fill="#352B2B" p-id="2836"></path><path d="M629.589333 239.274667l13.44 3.797333c9.6 2.688 18.688 4.992 27.434667 8.234667a247.466667 247.466667 0 0 1 35.925333 15.018666 219.776 219.776 0 0 1 32.512 21.333334 329.856 329.856 0 0 1 30.933334 28.074666 2.048 2.048 0 0 0 0.938666 0.512 2.432 2.432 0 0 0 1.109334 0 2.218667 2.218667 0 0 0 0.810666-0.725333 2.005333 2.005333 0 0 0 0.298667-1.066667 81.493333 81.493333 0 0 0-16.682667-43.562666 106.112 106.112 0 0 0-36.096-30.677334 112.426667 112.426667 0 0 0-43.605333-12.586666h-1.749333a93.610667 93.610667 0 0 0-45.482667 8.064 1.749333 1.749333 0 0 0-0.810667 0.768 1.706667 1.706667 0 0 0-0.256 1.109333 1.877333 1.877333 0 0 0 0.341334 1.066667 2.048 2.048 0 0 0 0.938666 0.64zM394.410667 239.274667l-13.44 3.925333c-9.6 2.688-18.688 4.992-27.392 8.234667a243.2 243.2 0 0 0-35.968 15.018666 219.776 219.776 0 0 0-32.512 21.333334A323.669333 323.669333 0 0 0 254.208 315.733333a1.962667 1.962667 0 0 1-0.981333 0.512 2.432 2.432 0 0 1-1.109334 0 2.005333 2.005333 0 0 1-0.810666-0.768 2.176 2.176 0 0 1-0.298667-1.024 81.493333 81.493333 0 0 1 16.682667-43.562666 106.325333 106.325333 0 0 1 35.882666-30.250667 112.042667 112.042667 0 0 1 43.648-12.544h1.749334a93.610667 93.610667 0 0 1 45.482666 8.064 1.749333 1.749333 0 0 1 1.024 1.834667 1.578667 1.578667 0 0 1-0.384 0.810666 2.048 2.048 0 0 1-0.682666 0.469334z" fill="#474549" p-id="2837"></path><path d="M669.013333 701.141333c-9.130667-94.250667-76.245333-167.338667-157.610666-167.210666s-148.096 73.6-156.8 167.850666z" fill="#62422A" p-id="2838"></path><path d="M354.773333 701.610667s132.266667-132.778667 314.410667-0.682667z" fill="#FF6F72" p-id="2839"></path><path d="M553.130667 540.8a132.650667 132.650667 0 0 0-34.133334-6.698667v49.365334h34.133334zM501.930667 534.058667a134.826667 134.826667 0 0 0-34.133334 6.656v42.666666h34.133334z" fill="#FFFFFF" p-id="2840"></path></svg>