<?xml version="1.0" standalone="no"?><!DOCTYPE svg PUBLIC "-//W3C//DTD SVG 1.1//EN" "http://www.w3.org/Graphics/SVG/1.1/DTD/svg11.dtd"><svg t="1675241710383" class="icon" viewBox="0 0 1024 1024" version="1.1" xmlns="http://www.w3.org/2000/svg" p-id="4039" xmlns:xlink="http://www.w3.org/1999/xlink" width="200" height="200"><path d="M933.418667 580.522667A426.666667 426.666667 0 1 0 443.733333 933.333333a426.666667 426.666667 0 0 0 489.685334-352.810666z" fill="#FFD264" p-id="4040"></path><path d="M735.274667 147.84a426.666667 426.666667 0 0 1-582.826667 593.450667 426.666667 426.666667 0 1 0 582.826667-593.493334z" fill="#FFC656" p-id="4041"></path><path d="M143.317333 557.013333A396.16 396.16 0 0 1 853.333333 315.733333 396.16 396.16 0 1 0 195.968 754.773333a394.709333 394.709333 0 0 1-52.650667-197.76z" fill="#FFD781" p-id="4042"></path><path d="M281.898667 518.912a18.133333 18.133333 0 0 1-17.066667-12.202667 18.432 18.432 0 0 1 0-11.050666 18.176 18.176 0 0 1 5.888-9.258667l61.568-47.872L268.8 401.066667a18.090667 18.090667 0 1 1 18.304-31.189334l86.442667 51.029334a18.133333 18.133333 0 0 1 6.186666 6.144 17.621333 17.621333 0 0 1 2.688 8.533333 17.834667 17.834667 0 0 1-1.578666 8.533333 18.261333 18.261333 0 0 1-5.376 6.826667l-82.517334 64.298667a17.578667 17.578667 0 0 1-11.050666 3.669333zM741.973333 518.912a17.664 17.664 0 0 1-11.136-3.84l-82.346666-64a18.218667 18.218667 0 0 1-4.266667-23.893333 18.517333 18.517333 0 0 1 6.314667-6.144l86.485333-50.901334a18.432 18.432 0 0 1 13.738667-1.92 18.688 18.688 0 0 1 6.357333 3.072 19.2 19.2 0 0 1 4.693333 5.290667 18.474667 18.474667 0 0 1 2.304 6.656 17.834667 17.834667 0 0 1-0.426666 7.04 17.578667 17.578667 0 0 1-3.072 6.357333A17.066667 17.066667 0 0 1 755.2 401.066667l-63.573333 37.461333L753.237333 486.4a18.261333 18.261333 0 0 1 5.973334 20.181333 18.133333 18.133333 0 0 1-17.066667 12.202667z" fill="#352B2B" p-id="4043"></path><path d="M781.610667 499.669333c-31.573333 189.354667 23.936 252.544 23.936 252.544a112.384 112.384 0 0 0 191.232-118.101333s-31.658667-78.037333-215.168-134.442667z" fill="#5CB1FF" p-id="4044"></path><path d="M869.546667 800.981333a112.426667 112.426667 0 0 0 127.232-166.869333s-13.397333-32.725333-72.533334-71.168c57.344 135.637333-6.570667 206.336-54.698666 238.037333z" fill="#409EF4" p-id="4045"></path><path d="M237.781333 496.896c-182.101333 60.885333-211.882667 139.52-211.882666 139.52a112.384 112.384 0 0 0 193.962666 113.536s53.973333-64.426667 17.92-253.056z" fill="#5CB1FF" p-id="4046"></path><path d="M12.8 715.818667a112.384 112.384 0 0 0 207.018667 34.133333s22.613333-27.136 28.8-97.578667C155.776 766.805333 63.402667 743.424 12.8 715.818667z" fill="#409EF4" p-id="4047"></path><path d="M267.562667 568.533333a246.058667 246.058667 0 0 0 488.874666 0z" fill="#695342" p-id="4048"></path><path d="M343.168 719.530667a245.845333 245.845333 0 0 0 331.904 5.290666l-2.218667-4.992c-164.138667-80.298667-327.253333-1.365333-329.685333-0.298666z" fill="#FF6F72" p-id="4049"></path><path d="M465.066667 568.533333h34.133333v45.013334h-34.133333zM520.533333 568.533333h34.133334v45.013334h-34.133334z" fill="#FFFFFF" p-id="4050"></path></svg>