<?xml version="1.0" standalone="no"?><!DOCTYPE svg PUBLIC "-//W3C//DTD SVG 1.1//EN" "http://www.w3.org/Graphics/SVG/1.1/DTD/svg11.dtd"><svg t="1675241675111" class="icon" viewBox="0 0 1024 1024" version="1.1" xmlns="http://www.w3.org/2000/svg" p-id="2376" xmlns:xlink="http://www.w3.org/1999/xlink" width="200" height="200"><path d="M813.696 813.696a426.666667 426.666667 0 1 0-603.392 0 426.666667 426.666667 0 0 0 603.392 0z" fill="#FFD264" p-id="2377"></path><path d="M735.189333 147.84A426.666667 426.666667 0 0 1 152.448 741.290667a426.666667 426.666667 0 1 0 582.741333-593.493334z" fill="#FFC656" p-id="2378"></path><path d="M143.36 557.013333A396.117333 396.117333 0 0 1 853.333333 315.733333 396.16 396.16 0 1 0 195.925333 754.730667a394.453333 394.453333 0 0 1-52.565333-197.717334z" fill="#FFD781" p-id="2379"></path><path d="M330.624 599.296a182.528 182.528 0 0 0 362.666667 0z" fill="#62422A" p-id="2380"></path><path d="M386.688 711.253333a182.357333 182.357333 0 0 0 246.314667 3.925334l-1.706667-3.925334c-121.813333-59.306667-243.029333-0.725333-244.608 0z" fill="#FF6F72" p-id="2381"></path><path d="M523.392 599.296h34.133333v43.52h-34.133333zM472.192 599.296h34.133333v43.52h-34.133333z" fill="#FFFFFF" p-id="2382"></path><path d="M453.12 387.968v-0.64c0-39.424-28.544-75.52-71.381333-75.52-34.133333 0-53.76 24.490667-60.501334 47.402667-6.741333-22.912-26.496-47.402667-60.544-47.402667-42.666667 0-71.338667 36.096-71.338666 75.52v0.64c0 8.533333 0 95.744 131.84 166.869333 131.968-71.125333 132.181333-158.293333 131.925333-166.869333zM834.517333 387.968v-0.64c0-39.424-28.501333-75.52-71.338666-75.52-34.133333 0-53.76 24.490667-60.501334 47.402667-6.741333-22.912-26.496-47.402667-60.544-47.402667-42.666667 0-71.338667 36.096-71.338666 75.52v0.64c0 8.533333 0 95.744 131.84 166.869333 131.925333-71.125333 132.138667-158.293333 131.882666-166.869333z" fill="#FA4141" p-id="2383"></path></svg>